<svg xmlns="http://www.w3.org/2000/svg" xmlns:xlink="http://www.w3.org/1999/xlink" width="500" zoomAndPan="magnify" viewBox="0 0 375 374.999991" height="500" preserveAspectRatio="xMidYMid meet" version="1.2"><defs><clipPath id="c3fa499351"><path d="M 125.023438 155.179688 L 250.273438 155.179688 L 250.273438 220.429688 L 125.023438 220.429688 Z M 125.023438 155.179688 "/></clipPath><clipPath id="2f015cd440"><path d="M 187.640625 155.179688 C 153.058594 155.179688 125.023438 169.769531 125.023438 187.769531 C 125.023438 205.765625 153.058594 220.359375 187.640625 220.359375 C 222.222656 220.359375 250.257812 205.765625 250.257812 187.769531 C 250.257812 169.769531 222.222656 155.179688 187.640625 155.179688 Z M 187.640625 155.179688 "/></clipPath><clipPath id="0ebfb30c4a"><path d="M 121.609375 151.636719 L 253.601562 151.636719 L 253.601562 223.636719 L 121.609375 223.636719 Z M 121.609375 151.636719 "/></clipPath><clipPath id="1cde276d9d"><path d="M 187.496094 151.636719 C 151.109375 151.636719 121.609375 167.691406 121.609375 187.496094 C 121.609375 207.300781 151.109375 223.355469 187.496094 223.355469 C 223.882812 223.355469 253.378906 207.300781 253.378906 187.496094 C 253.378906 167.691406 223.882812 151.636719 187.496094 151.636719 Z M 187.496094 151.636719 "/></clipPath></defs><g id="15a265c69d"><g clip-rule="nonzero" clip-path="url(#c3fa499351)"><g clip-rule="nonzero" clip-path="url(#2f015cd440)"><path style="fill:none;stroke-width:14;stroke-linecap:butt;stroke-linejoin:miter;stroke:#0100f2;stroke-opacity:1;stroke-miterlimit:4;" d="M 83.490205 0.00249399 C 37.380827 0.00249399 0.000616013 19.45562 0.000616013 43.455622 C 0.000616013 67.450415 37.380827 86.90875 83.490205 86.90875 C 129.599583 86.90875 166.979794 67.450415 166.979794 43.455622 C 166.979794 19.45562 129.599583 0.00249399 83.490205 0.00249399 Z M 83.490205 0.00249399 " transform="matrix(0.75,0,0,0.75,125.022975,155.177817)"/></g></g><g clip-rule="nonzero" clip-path="url(#0ebfb30c4a)"><g clip-rule="nonzero" clip-path="url(#1cde276d9d)"><path style="fill:none;stroke-width:4;stroke-linecap:butt;stroke-linejoin:miter;stroke:#0100f2;stroke-opacity:1;stroke-miterlimit:4;" d="M 87.847596 0.00142494 C 39.331967 0.00142494 -0.00136842 21.407676 -0.00136842 47.813928 C -0.00136842 74.22018 39.331967 95.626431 87.847596 95.626431 C 136.363224 95.626431 175.691351 74.22018 175.691351 47.813928 C 175.691351 21.407676 136.363224 0.00142494 87.847596 0.00142494 Z M 87.847596 0.00142494 " transform="matrix(0.75,0,0,0.75,121.610401,151.63565)"/></g></g><g style="fill:#19dc4f;fill-opacity:1;"><g transform="translate(142.700489, 197.379272)"><path style="stroke:none" d="M 8.953125 -7.390625 L 5.640625 -7.390625 L 4.359375 0 L 0.296875 0 L 3.796875 -20.1875 L 10.484375 -20.1875 C 12.722656 -20.1875 14.445312 -19.65625 15.65625 -18.59375 C 16.863281 -17.539062 17.394531 -16.078125 17.25 -14.203125 C 17.0625 -11.429688 15.582031 -9.503906 12.8125 -8.421875 L 15.65625 -0.21875 L 15.65625 0 L 11.328125 0 Z M 6.234375 -10.765625 L 9.25 -10.734375 C 10.320312 -10.753906 11.207031 -11.039062 11.90625 -11.59375 C 12.601562 -12.15625 13.019531 -12.921875 13.15625 -13.890625 C 13.289062 -14.785156 13.148438 -15.484375 12.734375 -15.984375 C 12.316406 -16.492188 11.65625 -16.769531 10.75 -16.8125 L 7.28125 -16.828125 Z M 6.234375 -10.765625 "/></g></g><g style="fill:#19dc4f;fill-opacity:1;"><g transform="translate(160.425892, 197.379272)"><path style="stroke:none" d="M 8.84375 -7.03125 L 1.25 -7.03125 L 1.796875 -10.265625 L 9.421875 -10.265625 Z M 8.84375 -7.03125 "/></g></g><g style="fill:#19dc4f;fill-opacity:1;"><g transform="translate(171.244214, 197.379272)"><path style="stroke:none" d="M 17.96875 -16.828125 L 11.984375 -16.828125 L 9.078125 0 L 5 0 L 7.921875 -16.828125 L 2 -16.828125 L 2.59375 -20.1875 L 18.578125 -20.1875 Z M 17.96875 -16.828125 "/></g></g><g style="fill:#19dc4f;fill-opacity:1;"><g transform="translate(187.194295, 197.379272)"><path style="stroke:none" d="M 7.171875 0.28125 C 5.859375 0.269531 4.691406 -0.0507812 3.671875 -0.6875 C 2.660156 -1.320312 1.90625 -2.191406 1.40625 -3.296875 C 0.914062 -4.398438 0.722656 -5.617188 0.828125 -6.953125 L 0.875 -7.5 C 1.007812 -8.957031 1.429688 -10.296875 2.140625 -11.515625 C 2.859375 -12.742188 3.773438 -13.6875 4.890625 -14.34375 C 6.015625 -15.007812 7.253906 -15.320312 8.609375 -15.28125 C 10.546875 -15.25 12.007812 -14.539062 13 -13.15625 C 14 -11.769531 14.378906 -10.019531 14.140625 -7.90625 L 13.90625 -6.203125 L 4.71875 -6.203125 C 4.675781 -5.234375 4.910156 -4.457031 5.421875 -3.875 C 5.929688 -3.289062 6.625 -2.988281 7.5 -2.96875 C 8.925781 -2.925781 10.175781 -3.476562 11.25 -4.625 L 13.03125 -2.40625 C 12.46875 -1.550781 11.65625 -0.882812 10.59375 -0.40625 C 9.53125 0.0703125 8.390625 0.300781 7.171875 0.28125 Z M 8.421875 -12.046875 C 7.703125 -12.066406 7.0625 -11.84375 6.5 -11.375 C 5.9375 -10.90625 5.4375 -10.085938 5 -8.921875 L 10.375 -8.921875 L 10.453125 -9.28125 C 10.515625 -9.644531 10.519531 -9.992188 10.46875 -10.328125 C 10.375 -10.867188 10.144531 -11.289062 9.78125 -11.59375 C 9.425781 -11.894531 8.972656 -12.046875 8.421875 -12.046875 Z M 8.421875 -12.046875 "/></g></g><g style="fill:#19dc4f;fill-opacity:1;"><g transform="translate(202.228983, 197.379272)"><path style="stroke:none" d="M 6.609375 -2.9375 C 7.335938 -2.914062 7.941406 -3.109375 8.421875 -3.515625 C 8.898438 -3.929688 9.210938 -4.484375 9.359375 -5.171875 L 13.03125 -5.1875 C 12.96875 -4.132812 12.640625 -3.1875 12.046875 -2.34375 C 11.453125 -1.5 10.65625 -0.84375 9.65625 -0.375 C 8.664062 0.09375 7.617188 0.316406 6.515625 0.296875 C 4.691406 0.265625 3.25 -0.363281 2.1875 -1.59375 C 1.125 -2.820312 0.613281 -4.457031 0.65625 -6.5 L 0.6875 -7.265625 L 0.703125 -7.421875 C 0.953125 -9.859375 1.773438 -11.789062 3.171875 -13.21875 C 4.566406 -14.65625 6.289062 -15.34375 8.34375 -15.28125 C 10.039062 -15.25 11.382812 -14.695312 12.375 -13.625 C 13.375 -12.5625 13.863281 -11.15625 13.84375 -9.40625 L 10.1875 -9.40625 C 10.1875 -10.207031 10.007812 -10.835938 9.65625 -11.296875 C 9.3125 -11.765625 8.789062 -12.015625 8.09375 -12.046875 C 6.21875 -12.109375 5.082031 -10.75 4.6875 -7.96875 C 4.550781 -6.957031 4.5 -6.101562 4.53125 -5.40625 C 4.625 -3.789062 5.316406 -2.96875 6.609375 -2.9375 Z M 6.609375 -2.9375 "/></g></g><g style="fill:#19dc4f;fill-opacity:1;"><g transform="translate(216.736632, 197.379272)"><path style="stroke:none" d="M 6 -13.34375 C 7.175781 -14.65625 8.53125 -15.300781 10.0625 -15.28125 C 11.550781 -15.25 12.644531 -14.71875 13.34375 -13.6875 C 14.039062 -12.65625 14.304688 -11.242188 14.140625 -9.453125 L 12.546875 0 L 8.640625 0 L 10.234375 -9.5 C 10.285156 -9.863281 10.296875 -10.195312 10.265625 -10.5 C 10.171875 -11.5 9.585938 -12.015625 8.515625 -12.046875 C 7.460938 -12.078125 6.539062 -11.625 5.75 -10.6875 L 3.859375 0 L -0.0625 0 L 3.640625 -21.3125 L 7.5625 -21.3125 Z M 6 -13.34375 "/></g></g></g></svg>